<svg width="2770" height="884" viewBox="0 0 2770 884" fill="none" xmlns="http://www.w3.org/2000/svg">
<path d="M668 20.0308C668 4.49281 651.056 -5.11059 637.725 2.87192L9.72519 378.92C3.69251 382.532 0 389.047 0 396.079L0 630.243C0 641.289 8.95431 650.243 20 650.243H648C659.046 650.243 668 641.289 668 630.243V504.743C668 493.698 659.046 484.743 648 484.743H270.435C250.247 484.743 242.773 458.234 259.988 447.689L658.447 203.595C664.382 199.96 668 193.5 668 186.541V20.0308Z" fill="#8E51FF"/>
<path d="M0 838.243C0 849.289 8.95431 858.243 20 858.243H648C659.046 858.243 668 849.289 668 838.243V712.743C668 701.698 659.046 692.743 648 692.743H20C8.95431 692.743 0 701.698 0 712.743V838.243Z" fill="#8E51FF"/>
<path d="M892.9 512.7C892.9 477.233 900.133 446.2 914.6 419.6C929.067 392.533 949.133 370.833 974.8 354.5C1000.47 338.167 1030.33 328.367 1064.4 325.1C1098.47 321.367 1134.87 325.333 1173.6 337C1173.6 354.733 1173.6 372.7 1173.6 390.9C1173.6 409.1 1173.6 427.067 1173.6 444.8C1146.53 431.733 1120.63 425.667 1095.9 426.6C1071.17 427.533 1050.87 435.233 1035 449.7C1019.13 463.7 1011.2 484.7 1011.2 512.7C1011.2 540.7 1019.13 561.933 1035 576.4C1050.87 590.4 1071.17 597.867 1095.9 598.8C1120.63 599.267 1146.53 593.2 1173.6 580.6C1173.6 598.333 1173.6 616.3 1173.6 634.5C1173.6 652.7 1173.6 670.667 1173.6 688.4C1134.87 700.067 1098.47 704.033 1064.4 700.3C1030.33 697.033 1000.47 687.233 974.8 670.9C949.133 654.567 929.067 633.1 914.6 606.5C900.133 579.433 892.9 548.167 892.9 512.7ZM1483.49 694C1483.49 690.267 1483.49 686.767 1483.49 683.5C1483.49 679.767 1483.49 676.267 1483.49 673C1471.83 682.8 1458.53 690.267 1443.59 695.4C1429.13 701 1413.49 703.8 1396.69 703.8C1372.89 703.8 1350.49 699.367 1329.49 690.5C1308.49 681.167 1289.83 668.1 1273.49 651.3C1257.63 634.033 1245.03 613.733 1235.69 590.4C1226.83 567.067 1222.39 541.167 1222.39 512.7C1222.39 483.767 1226.83 457.633 1235.69 434.3C1245.03 410.967 1257.63 391.133 1273.49 374.8C1289.83 358 1308.49 345.167 1329.49 336.3C1350.49 326.967 1372.66 322.3 1395.99 322.3C1412.79 322.3 1428.66 325.1 1443.59 330.7C1458.53 335.833 1471.83 343.067 1483.49 352.4C1483.49 348.667 1483.49 345.167 1483.49 341.9C1483.49 338.633 1483.49 335.367 1483.49 332.1C1502.63 332.1 1521.99 332.1 1541.59 332.1C1561.19 332.1 1580.33 332.1 1598.99 332.1C1598.99 391.833 1598.99 452.267 1598.99 513.4C1598.99 574.067 1598.99 634.267 1598.99 694C1580.33 694 1561.19 694 1541.59 694C1521.99 694 1502.63 694 1483.49 694ZM1412.09 601.6C1434.49 601.6 1452.46 593.433 1465.99 577.1C1479.53 560.767 1486.29 539.3 1486.29 512.7C1486.29 486.1 1479.53 464.867 1465.99 449C1452.46 432.667 1434.49 424.5 1412.09 424.5C1389.23 424.5 1371.03 432.433 1357.49 448.3C1344.43 464.167 1337.89 485.633 1337.89 512.7C1337.89 539.767 1344.43 561.467 1357.49 577.8C1371.03 593.667 1389.23 601.6 1412.09 601.6ZM1917.57 694C1917.57 690.267 1917.57 686.767 1917.57 683.5C1917.57 679.767 1917.57 676.267 1917.57 673C1905.91 682.8 1892.61 690.267 1877.67 695.4C1863.21 701 1847.57 703.8 1830.77 703.8C1806.97 703.8 1784.57 699.133 1763.57 689.8C1742.57 680.467 1723.91 667.4 1707.57 650.6C1691.71 633.333 1679.11 613.033 1669.77 589.7C1660.91 566.367 1656.47 540.7 1656.47 512.7C1656.47 484.233 1660.91 458.333 1669.77 435C1679.11 411.667 1691.71 391.6 1707.57 374.8C1723.91 358 1742.57 345.167 1763.57 336.3C1784.57 326.967 1806.74 322.3 1830.07 322.3C1846.87 322.3 1862.74 325.1 1877.67 330.7C1892.61 335.833 1905.91 343.067 1917.57 352.4C1917.57 324.4 1917.57 296.167 1917.57 267.7C1917.57 239.233 1917.57 211 1917.57 183C1936.71 183 1956.07 183 1975.67 183C1995.27 183 2014.41 183 2033.07 183C2033.07 267.467 2033.07 352.633 2033.07 438.5C2033.07 524.367 2033.07 609.533 2033.07 694C2014.41 694 1995.27 694 1975.67 694C1956.07 694 1936.71 694 1917.57 694ZM1846.17 601.6C1868.57 601.6 1886.54 593.433 1900.07 577.1C1913.61 560.767 1920.37 539.3 1920.37 512.7C1920.37 486.1 1913.61 464.867 1900.07 449C1886.54 432.667 1868.57 424.5 1846.17 424.5C1823.31 424.5 1805.11 432.433 1791.57 448.3C1778.51 464.167 1771.97 485.633 1771.97 512.7C1771.97 539.767 1778.51 561.467 1791.57 577.8C1805.11 593.667 1823.31 601.6 1846.17 601.6ZM2425.07 677.2C2392.87 690.733 2360.91 699.133 2329.17 702.4C2297.44 705.667 2267.34 703.8 2238.87 696.8C2210.87 690.267 2185.91 678.833 2163.97 662.5C2142.04 646.167 2124.77 625.4 2112.17 600.2C2100.04 575 2093.97 545.833 2093.97 512.7C2093.97 485.167 2098.41 459.967 2107.27 437.1C2116.61 413.767 2129.67 393.467 2146.47 376.2C2163.27 358.467 2183.11 344.933 2205.97 335.6C2228.84 325.8 2253.81 320.9 2280.87 320.9C2305.14 320.9 2327.07 324.867 2346.67 332.8C2366.27 340.733 2383.31 351.933 2397.77 366.4C2412.24 380.4 2423.91 397.2 2432.77 416.8C2441.64 436.4 2447.24 457.867 2449.57 481.2C2451.91 504.533 2450.51 529.267 2445.37 555.4C2407.11 555.4 2368.61 555.4 2329.87 555.4C2291.14 555.4 2252.64 555.4 2214.37 555.4C2223.24 573.133 2237.94 585.733 2258.47 593.2C2279.47 600.667 2304.21 603 2332.67 600.2C2361.61 597.4 2392.41 589.933 2425.07 577.8C2425.07 594.133 2425.07 610.7 2425.07 627.5C2425.07 644.3 2425.07 660.867 2425.07 677.2ZM2278.07 424.5C2264.54 424.5 2251.94 428.233 2240.27 435.7C2229.07 443.167 2220.44 454.6 2214.37 470C2235.37 470 2256.37 470 2277.37 470C2298.84 470 2320.07 470 2341.07 470C2335.47 454.133 2327.07 442.7 2315.87 435.7C2305.14 428.233 2292.54 424.5 2278.07 424.5ZM2542.32 584.1C2542.32 559.367 2542.32 534.633 2542.32 509.9C2542.32 484.7 2542.32 459.967 2542.32 435.7C2532.99 435.7 2523.42 435.7 2513.62 435.7C2504.29 435.7 2494.96 435.7 2485.62 435.7C2485.62 418.433 2485.62 401.167 2485.62 383.9C2485.62 366.633 2485.62 349.367 2485.62 332.1C2494.96 332.1 2504.29 332.1 2513.62 332.1C2523.42 332.1 2532.99 332.1 2542.32 332.1C2542.32 315.767 2542.32 299.667 2542.32 283.8C2542.32 267.467 2542.32 251.367 2542.32 235.5C2561.46 235.5 2580.82 235.5 2600.42 235.5C2620.02 235.5 2639.16 235.5 2657.82 235.5C2657.82 251.367 2657.82 267.467 2657.82 283.8C2657.82 299.667 2657.82 315.767 2657.82 332.1C2671.36 332.1 2684.89 332.1 2698.42 332.1C2712.42 332.1 2725.96 332.1 2739.02 332.1C2739.02 349.367 2739.02 366.633 2739.02 383.9C2739.02 401.167 2739.02 418.433 2739.02 435.7C2725.96 435.7 2712.42 435.7 2698.42 435.7C2684.89 435.7 2671.36 435.7 2657.82 435.7C2657.82 455.3 2657.82 475.367 2657.82 495.9C2657.82 515.967 2657.82 535.8 2657.82 555.4C2657.82 574.067 2665.99 585.733 2682.32 590.4C2699.12 594.6 2719.42 592.967 2743.22 585.5C2743.22 602.767 2743.22 620.267 2743.22 638C2743.22 655.733 2743.22 673.233 2743.22 690.5C2718.02 697.967 2693.52 701.7 2669.72 701.7C2645.92 702.167 2624.46 698.433 2605.32 690.5C2586.19 682.1 2570.79 669.267 2559.12 652C2547.92 634.267 2542.32 611.633 2542.32 584.1Z" fill="#10101D"/>
</svg>
